# xmcd
#
# Track frame offsets:
#	150
#	14514
#	27668
#	48187
#	73111
#	90691
#	102787
#	121780
#	135582
#	147076
#	168605
#	185734
#	206974
#	217013
#	244143
#	258271
#	284101
#
# Disc length: 3901 seconds
#
# Revision: 1
# Processed by: cddbd v1.5PL3 Copyright (c) Steve Scherf et al.
# Submitted via: CDex 1.50Beta5
#
DISCID=0c0f3b11
DTITLE=Various Artist - Healing PIano Solo Melody
DYEAR=1900
DGENRE=Classical -> Piano
TTITLE0=ピアノソロ/エンニオ・モリコーネ　愛を奏でて　〜映画「海の上のピアニスト」より〜
TTITLE1=ピアノそろ/パラダイス　〜映画「ニュー・シネマ・パラダイス」より〜
TTITLE2=ピアノそろ/Ｓ．Ｅ．Ｎ．Ｓ　人と時と風の中へ　〜オンワード「祖曲」93ＣＭソング〜
TTITLE3=ピアノそろ/葉加瀬太郎ｗｉｔｈ小松亮太　情熱大陸　〜ＭＢＳ．ＴＢＳ系「情熱大陸」メインテーマ〜
TTITLE4=ピアノそろ/久石譲　Ｇｅｎｅ　〜ＮＨＫスペシャル「驚異の小宇宙・人体?〜遺伝子・ＤＮＡ〜」メインテーマ〜
TTITLE5=ピアノそろ/岩代太郎　Ｔｉｍｅ　Ｏｆ　Ｄｅｓｔｉｎｙ　-Ｏｎ　Ａｉｒ　Ｖｅｒｓｉｏｎ-　〜ＮＨＫ大河ドラマ「葵　徳川三代」より〜
TTITLE6=ピアノそろ/エルビス・コステロ　スマイル　〜フジテレビ系ドラマ「空から降る一億の星」主題歌〜
TTITLE7=ピアノそろ/アンドレ・ギャニオン　愛につつまれて　〜フジテレビ系ドラマ「Ａｇｅ.35恋しくて」より〜
TTITLE8=ピアノそろ/リチャード・ロジャース　My　Ｆａｖｏｒｉｔｅ　Things　〜映画「サウンド・オブ・ミュージック」より〜
TTITLE9=ピアノそろ/セリーヌ・ディオン　My Heart Will Go Oｎ　〜映画「タイタニック」より〜
TTITLE10=ピアノそろ/シルヴィ・バルタン　あなたのとりこ　〜サントリー「緑水」CMソング
TTITLE11=ピアノそろ/ナナ・ムスクーリ　オンリー・ラブ　〜TBS系ドラマ「百年の物語」主題歌〜
TTITLE12=ピアノそろ/星に願いを　〜映画「ピノキオ」より〜
TTITLE13=ピアノそろ/ホール・ニュー・ワールド　〜映画「アラジン」より〜
TTITLE14=ピアノそろ/アメイジング・グレイス
TTITLE15=ピアノそろ/E.サティ　あなたが欲しい
TTITLE16=ピアノそろ/J.S　バッハ　ゴルトベルク変奏曲より主題回帰
EXTD=
EXTT0=
EXTT1=
EXTT2=
EXTT3=
EXTT4=
EXTT5=
EXTT6=
EXTT7=
EXTT8=
EXTT9=
EXTT10=
EXTT11=
EXTT12=
EXTT13=
EXTT14=
EXTT15=
EXTT16=
PLAYORDER=
